<?xml version="1.0" encoding="UTF-8" standalone="no"?>
<!DOCTYPE svg PUBLIC "-//W3C//DTD SVG 1.1//EN" "http://www.w3.org/Graphics/SVG/1.1/DTD/svg11.dtd">
<svg xmlns="http://www.w3.org/2000/svg" version="1.1" viewBox="0.00 0.00 50.00 50.00">
<g stroke-width="2.00" fill="none" stroke-linecap="butt">
<path stroke="#8791a2" vector-effect="non-scaling-stroke" d="
  M 0.00 23.68
  Q 0.58 32.48 7.01 38.53
  A 0.78 0.77 -51.0 0 1 7.11 39.55
  Q 4.43 43.25 0.76 45.98
  A 1.42 1.42 0.0 0 0 1.05 48.43
  C 5.77 50.42 14.72 46.97 19.23 45.02
  Q 19.66 44.83 20.13 44.90
  Q 36.59 47.44 45.95 35.19
  C 54.41 24.13 48.06 8.03 35.76 3.23
  C 20.39 -2.76 1.63 4.76 0.00 22.44"
/>
<path stroke="#8791a2" vector-effect="non-scaling-stroke" d="
  M 26.49 13.30
  A 0.49 0.49 0.0 0 0 26.00 12.81
  L 24.00 12.81
  A 0.49 0.49 0.0 0 0 23.51 13.30
  L 23.51 15.68
  A 0.49 0.49 0.0 0 0 24.00 16.17
  L 26.00 16.17
  A 0.49 0.49 0.0 0 0 26.49 15.68
  L 26.49 13.30"
/>
<path stroke="#8791a2" vector-effect="non-scaling-stroke" d="
  M 26.50 20.55
  A 0.31 0.31 0.0 0 0 26.19 20.24
  L 23.81 20.24
  A 0.31 0.31 0.0 0 0 23.50 20.55
  L 23.50 33.93
  A 0.31 0.31 0.0 0 0 23.81 34.24
  L 26.19 34.24
  A 0.31 0.31 0.0 0 0 26.50 33.93
  L 26.50 20.55"
/>
</g>
<path fill="#244160" d="
  M 0.00 0.00
  L 50.00 0.00
  L 50.00 50.00
  L 0.00 50.00
  L 0.00 23.68
  Q 0.58 32.48 7.01 38.53
  A 0.78 0.77 -51.0 0 1 7.11 39.55
  Q 4.43 43.25 0.76 45.98
  A 1.42 1.42 0.0 0 0 1.05 48.43
  C 5.77 50.42 14.72 46.97 19.23 45.02
  Q 19.66 44.83 20.13 44.90
  Q 36.59 47.44 45.95 35.19
  C 54.41 24.13 48.06 8.03 35.76 3.23
  C 20.39 -2.76 1.63 4.76 0.00 22.44
  L 0.00 0.00
  Z"
/>
<path fill="#e9e1e3" d="
  M 0.00 23.68
  L 0.00 22.44
  C 1.63 4.76 20.39 -2.76 35.76 3.23
  C 48.06 8.03 54.41 24.13 45.95 35.19
  Q 36.59 47.44 20.13 44.90
  Q 19.66 44.83 19.23 45.02
  C 14.72 46.97 5.77 50.42 1.05 48.43
  A 1.42 1.42 0.0 0 1 0.76 45.98
  Q 4.43 43.25 7.11 39.55
  A 0.78 0.77 -51.0 0 0 7.01 38.53
  Q 0.58 32.48 0.00 23.68
  Z
  M 26.49 13.30
  A 0.49 0.49 0.0 0 0 26.00 12.81
  L 24.00 12.81
  A 0.49 0.49 0.0 0 0 23.51 13.30
  L 23.51 15.68
  A 0.49 0.49 0.0 0 0 24.00 16.17
  L 26.00 16.17
  A 0.49 0.49 0.0 0 0 26.49 15.68
  L 26.49 13.30
  Z
  M 26.50 20.55
  A 0.31 0.31 0.0 0 0 26.19 20.24
  L 23.81 20.24
  A 0.31 0.31 0.0 0 0 23.50 20.55
  L 23.50 33.93
  A 0.31 0.31 0.0 0 0 23.81 34.24
  L 26.19 34.24
  A 0.31 0.31 0.0 0 0 26.50 33.93
  L 26.50 20.55
  Z"
/>
<rect fill="#244160" x="23.51" y="12.81" width="2.98" height="3.36" rx="0.49"/>
<rect fill="#244160" x="23.50" y="20.24" width="3.00" height="14.00" rx="0.31"/>
</svg>
