<?xml version="1.0" encoding="UTF-8" standalone="no"?>
<!DOCTYPE svg PUBLIC "-//W3C//DTD SVG 1.1//EN" "http://www.w3.org/Graphics/SVG/1.1/DTD/svg11.dtd">
<svg xmlns="http://www.w3.org/2000/svg" version="1.1" viewBox="0.00 0.00 50.00 50.00">
<g stroke-width="2.00" fill="none" stroke-linecap="butt">
<path stroke="#8791a2" vector-effect="non-scaling-stroke" d="
  M 47.90 24.99
  A 22.91 22.91 0.0 0 0 24.99 2.08
  A 22.91 22.91 0.0 0 0 2.08 24.99
  A 22.91 22.91 0.0 0 0 24.99 47.90
  A 22.91 22.91 0.0 0 0 47.90 24.99"
/>
<path stroke="#8791a2" vector-effect="non-scaling-stroke" d="
  M 35.40 37.65
  Q 37.48 38.47 39.64 39.37
  Q 40.06 39.55 40.36 39.20
  C 49.17 28.73 47.28 12.88 34.81 6.45
  C 13.82 -4.37 -5.75 21.59 9.58 39.19
  A 0.63 0.62 -32.1 0 0 10.31 39.35
  L 18.08 36.07
  A 3.33 3.33 0.0 0 0 19.68 31.36
  C 18.33 28.98 15.03 24.88 16.36 21.99
  A 1.46 1.42 51.5 0 0 16.45 21.07
  C 12.22 2.33 37.27 5.74 34.01 18.77
  Q 33.63 20.30 34.03 24.38
  Q 34.08 24.89 33.81 25.34
  C 32.58 27.34 29.07 32.18 30.11 34.41
  C 30.87 36.04 33.78 37.01 35.40 37.65"
/>
</g>
<path fill="#244160" d="
  M 0.00 0.00
  L 50.00 0.00
  L 50.00 50.00
  L 0.00 50.00
  L 0.00 0.00
  Z
  M 47.90 24.99
  A 22.91 22.91 0.0 0 0 24.99 2.08
  A 22.91 22.91 0.0 0 0 2.08 24.99
  A 22.91 22.91 0.0 0 0 24.99 47.90
  A 22.91 22.91 0.0 0 0 47.90 24.99
  Z"
/>
<path fill="#e9e1e3" d="
  M 47.90 24.99
  A 22.91 22.91 0.0 0 1 24.99 47.90
  A 22.91 22.91 0.0 0 1 2.08 24.99
  A 22.91 22.91 0.0 0 1 24.99 2.08
  A 22.91 22.91 0.0 0 1 47.90 24.99
  Z
  M 35.40 37.65
  Q 37.48 38.47 39.64 39.37
  Q 40.06 39.55 40.36 39.20
  C 49.17 28.73 47.28 12.88 34.81 6.45
  C 13.82 -4.37 -5.75 21.59 9.58 39.19
  A 0.63 0.62 -32.1 0 0 10.31 39.35
  L 18.08 36.07
  A 3.33 3.33 0.0 0 0 19.68 31.36
  C 18.33 28.98 15.03 24.88 16.36 21.99
  A 1.46 1.42 51.5 0 0 16.45 21.07
  C 12.22 2.33 37.27 5.74 34.01 18.77
  Q 33.63 20.30 34.03 24.38
  Q 34.08 24.89 33.81 25.34
  C 32.58 27.34 29.07 32.18 30.11 34.41
  C 30.87 36.04 33.78 37.01 35.40 37.65
  Z"
/>
<path fill="#244160" d="
  M 35.40 37.65
  C 33.78 37.01 30.87 36.04 30.11 34.41
  C 29.07 32.18 32.58 27.34 33.81 25.34
  Q 34.08 24.89 34.03 24.38
  Q 33.63 20.30 34.01 18.77
  C 37.27 5.74 12.22 2.33 16.45 21.07
  A 1.46 1.42 51.5 0 1 16.36 21.99
  C 15.03 24.88 18.33 28.98 19.68 31.36
  A 3.33 3.33 0.0 0 1 18.08 36.07
  L 10.31 39.35
  A 0.63 0.62 -32.1 0 1 9.58 39.19
  C -5.75 21.59 13.82 -4.37 34.81 6.45
  C 47.28 12.88 49.17 28.73 40.36 39.20
  Q 40.06 39.55 39.64 39.37
  Q 37.48 38.47 35.40 37.65
  Z"
/>
</svg>
