<?xml version="1.0" encoding="UTF-8" standalone="no"?>
<!DOCTYPE svg PUBLIC "-//W3C//DTD SVG 1.1//EN" "http://www.w3.org/Graphics/SVG/1.1/DTD/svg11.dtd">
<svg xmlns="http://www.w3.org/2000/svg" version="1.1" viewBox="0.00 0.00 50.00 50.00">
<g stroke-width="2.00" fill="none" stroke-linecap="butt">
<path stroke="#8791a2" vector-effect="non-scaling-stroke" d="
  M 47.88 24.99
  A 22.89 22.89 0.0 0 0 24.99 2.10
  A 22.89 22.89 0.0 0 0 2.10 24.99
  A 22.89 22.89 0.0 0 0 24.99 47.88
  A 22.89 22.89 0.0 0 0 47.88 24.99"
/>
<path stroke="#8791a2" vector-effect="non-scaling-stroke" d="
  M 24.00 26.51
  L 24.00 32.25
  Q 24.00 32.75 24.50 32.75
  L 25.26 32.75
  A 0.70 0.69 0.0 0 0 25.96 32.06
  L 26.02 26.51
  Q 26.02 26.04 26.49 26.03
  L 32.18 25.93
  A 0.81 0.81 0.0 0 0 32.98 25.16
  Q 33.01 24.58 32.49 24.21
  Q 32.24 24.03 31.83 24.03
  Q 29.21 24.00 26.53 24.00
  Q 26.01 23.99 26.01 23.48
  Q 26.00 20.63 25.96 17.82
  Q 25.95 16.84 24.62 17.09
  A 0.76 0.74 -5.7 0 0 24.01 17.82
  L 24.00 23.48
  Q 23.99 23.96 23.51 23.97
  L 17.52 24.06
  A 0.63 0.63 0.0 0 0 16.98 24.98
  L 17.28 25.55
  A 0.79 0.78 -14.0 0 0 17.97 25.96
  L 23.51 26.02
  Q 24.00 26.02 24.00 26.51"
/>
</g>
<path fill="#244160" d="
  M 0.00 0.00
  L 50.00 0.00
  L 50.00 50.00
  L 0.00 50.00
  L 0.00 0.00
  Z
  M 47.88 24.99
  A 22.89 22.89 0.0 0 0 24.99 2.10
  A 22.89 22.89 0.0 0 0 2.10 24.99
  A 22.89 22.89 0.0 0 0 24.99 47.88
  A 22.89 22.89 0.0 0 0 47.88 24.99
  Z"
/>
<path fill="#e9e1e3" d="
  M 47.88 24.99
  A 22.89 22.89 0.0 0 1 24.99 47.88
  A 22.89 22.89 0.0 0 1 2.10 24.99
  A 22.89 22.89 0.0 0 1 24.99 2.10
  A 22.89 22.89 0.0 0 1 47.88 24.99
  Z
  M 24.00 26.51
  L 24.00 32.25
  Q 24.00 32.75 24.50 32.75
  L 25.26 32.75
  A 0.70 0.69 0.0 0 0 25.96 32.06
  L 26.02 26.51
  Q 26.02 26.04 26.49 26.03
  L 32.18 25.93
  A 0.81 0.81 0.0 0 0 32.98 25.16
  Q 33.01 24.58 32.49 24.21
  Q 32.24 24.03 31.83 24.03
  Q 29.21 24.00 26.53 24.00
  Q 26.01 23.99 26.01 23.48
  Q 26.00 20.63 25.96 17.82
  Q 25.95 16.84 24.62 17.09
  A 0.76 0.74 -5.7 0 0 24.01 17.82
  L 24.00 23.48
  Q 23.99 23.96 23.51 23.97
  L 17.52 24.06
  A 0.63 0.63 0.0 0 0 16.98 24.98
  L 17.28 25.55
  A 0.79 0.78 -14.0 0 0 17.97 25.96
  L 23.51 26.02
  Q 24.00 26.02 24.00 26.51
  Z"
/>
<path fill="#244160" d="
  M 23.51 26.02
  L 17.97 25.96
  A 0.79 0.78 -14.0 0 1 17.28 25.55
  L 16.98 24.98
  A 0.63 0.63 0.0 0 1 17.52 24.06
  L 23.51 23.97
  Q 23.99 23.96 24.00 23.48
  L 24.01 17.82
  A 0.76 0.74 -5.7 0 1 24.62 17.09
  Q 25.95 16.84 25.96 17.82
  Q 26.00 20.63 26.01 23.48
  Q 26.01 23.99 26.53 24.00
  Q 29.21 24.00 31.83 24.03
  Q 32.24 24.03 32.49 24.21
  Q 33.01 24.58 32.98 25.16
  A 0.81 0.81 0.0 0 1 32.18 25.93
  L 26.49 26.03
  Q 26.02 26.04 26.02 26.51
  L 25.96 32.06
  A 0.70 0.69 0.0 0 1 25.26 32.75
  L 24.50 32.75
  Q 24.00 32.75 24.00 32.25
  L 24.00 26.51
  Q 24.00 26.02 23.51 26.02
  Z"
/>
</svg>
