<?xml version="1.0" encoding="UTF-8" standalone="no"?>
<!DOCTYPE svg PUBLIC "-//W3C//DTD SVG 1.1//EN" "http://www.w3.org/Graphics/SVG/1.1/DTD/svg11.dtd">
<svg xmlns="http://www.w3.org/2000/svg" version="1.1" viewBox="0.00 0.00 24.00 24.00">
<g stroke-width="2.00" fill="none" stroke-linecap="butt">
<path stroke="#8791a2" vector-effect="non-scaling-stroke" d="
  M 13.49 3.67
  C 13.33 1.76 10.94 1.36 10.58 3.30
  Q 10.48 3.82 10.04 4.11
  Q 4.40 7.78 6.27 14.68
  Q 6.36 15.00 6.69 15.00
  L 17.48 15.00
  Q 17.93 15.00 17.95 14.54
  C 18.15 10.04 18.38 6.26 14.00 4.38
  Q 13.54 4.17 13.49 3.67"
/>
<path stroke="#8791a2" vector-effect="non-scaling-stroke" d="
  M 10.22 19.51
  Q 10.08 22.65 13.15 21.62
  A 0.91 0.91 0.0 0 0 13.66 20.32
  Q 13.26 19.60 14.03 19.15
  Q 14.38 18.95 14.96 18.99
  Q 17.06 19.13 19.18 18.85
  Q 19.75 18.77 19.75 18.19
  L 19.75 17.68
  A 0.65 0.65 0.0 0 0 19.11 17.03
  Q 12.34 16.96 5.48 17.03
  C 4.90 17.03 4.35 17.38 4.14 17.89
  A 0.73 0.73 0.0 0 0 4.80 18.89
  L 9.80 19.05
  A 0.43 0.43 0.0 0 1 10.22 19.51"
/>
</g>
<path fill="#244160" d="
  M 0.00 0.00
  L 24.00 0.00
  L 24.00 24.00
  L 0.00 24.00
  L 0.00 0.00
  Z
  M 13.49 3.67
  C 13.33 1.76 10.94 1.36 10.58 3.30
  Q 10.48 3.82 10.04 4.11
  Q 4.40 7.78 6.27 14.68
  Q 6.36 15.00 6.69 15.00
  L 17.48 15.00
  Q 17.93 15.00 17.95 14.54
  C 18.15 10.04 18.38 6.26 14.00 4.38
  Q 13.54 4.17 13.49 3.67
  Z
  M 10.22 19.51
  Q 10.08 22.65 13.15 21.62
  A 0.91 0.91 0.0 0 0 13.66 20.32
  Q 13.26 19.60 14.03 19.15
  Q 14.38 18.95 14.96 18.99
  Q 17.06 19.13 19.18 18.85
  Q 19.75 18.77 19.75 18.19
  L 19.75 17.68
  A 0.65 0.65 0.0 0 0 19.11 17.03
  Q 12.34 16.96 5.48 17.03
  C 4.90 17.03 4.35 17.38 4.14 17.89
  A 0.73 0.73 0.0 0 0 4.80 18.89
  L 9.80 19.05
  A 0.43 0.43 0.0 0 1 10.22 19.51
  Z"
/>
<path fill="#e9e1e3" d="
  M 10.58 3.30
  C 10.94 1.36 13.33 1.76 13.49 3.67
  Q 13.54 4.17 14.00 4.38
  C 18.38 6.26 18.15 10.04 17.95 14.54
  Q 17.93 15.00 17.48 15.00
  L 6.69 15.00
  Q 6.36 15.00 6.27 14.68
  Q 4.40 7.78 10.04 4.11
  Q 10.48 3.82 10.58 3.30
  Z"
/>
<path fill="#e9e1e3" d="
  M 9.80 19.05
  L 4.80 18.89
  A 0.73 0.73 0.0 0 1 4.14 17.89
  C 4.35 17.38 4.90 17.03 5.48 17.03
  Q 12.34 16.96 19.11 17.03
  A 0.65 0.65 0.0 0 1 19.75 17.68
  L 19.75 18.19
  Q 19.75 18.77 19.18 18.85
  Q 17.06 19.13 14.96 18.99
  Q 14.38 18.95 14.03 19.15
  Q 13.26 19.60 13.66 20.32
  A 0.91 0.91 0.0 0 1 13.15 21.62
  Q 10.08 22.65 10.22 19.51
  A 0.43 0.43 0.0 0 0 9.80 19.05
  Z"
/>
</svg>
