<?xml version="1.0" encoding="UTF-8" standalone="no"?>
<!DOCTYPE svg PUBLIC "-//W3C//DTD SVG 1.1//EN" "http://www.w3.org/Graphics/SVG/1.1/DTD/svg11.dtd">
<svg xmlns="http://www.w3.org/2000/svg" version="1.1" viewBox="0.00 0.00 48.00 48.00">
<g stroke-width="2.00" fill="none" stroke-linecap="butt">
<path stroke="#8791a2" vector-effect="non-scaling-stroke" d="
  M 39.08 17.22
  A 7.61 7.61 0.0 0 0 31.47 9.61
  A 7.61 7.61 0.0 0 0 23.86 17.22
  A 7.61 7.61 0.0 0 0 31.47 24.83
  A 7.61 7.61 0.0 0 0 39.08 17.22"
/>
<path stroke="#8791a2" vector-effect="non-scaling-stroke" d="
  M 21.05 20.28
  A 6.60 6.60 0.0 0 0 14.45 13.68
  A 6.60 6.60 0.0 0 0 7.85 20.28
  A 6.60 6.60 0.0 0 0 14.45 26.88
  A 6.60 6.60 0.0 0 0 21.05 20.28"
/>
<path stroke="#8791a2" vector-effect="non-scaling-stroke" d="
  M 20.12 38.46
  L 42.84 38.46
  A 2.68 2.68 0.0 0 0 45.52 35.78
  L 45.52 35.09
  A 12.20 8.79 0.0 0 0 33.32 26.30
  L 29.64 26.30
  A 12.20 8.79 0.0 0 0 17.44 35.09
  L 17.44 35.78
  A 2.68 2.68 0.0 0 0 20.12 38.46"
/>
<path stroke="#8791a2" vector-effect="non-scaling-stroke" d="
  M 16.05 38.05
  C 14.77 34.46 15.45 31.51 17.78 28.52
  Q 18.12 28.07 17.57 27.97
  C 12.14 26.93 0.56 28.65 2.68 36.66
  A 2.48 2.47 82.5 0 0 5.07 38.50
  L 15.73 38.50
  Q 16.21 38.50 16.05 38.05"
/>
</g>
<path fill="#244160" d="
  M 0.00 0.00
  L 48.00 0.00
  L 48.00 48.00
  L 0.00 48.00
  L 0.00 0.00
  Z
  M 39.08 17.22
  A 7.61 7.61 0.0 0 0 31.47 9.61
  A 7.61 7.61 0.0 0 0 23.86 17.22
  A 7.61 7.61 0.0 0 0 31.47 24.83
  A 7.61 7.61 0.0 0 0 39.08 17.22
  Z
  M 21.05 20.28
  A 6.60 6.60 0.0 0 0 14.45 13.68
  A 6.60 6.60 0.0 0 0 7.85 20.28
  A 6.60 6.60 0.0 0 0 14.45 26.88
  A 6.60 6.60 0.0 0 0 21.05 20.28
  Z
  M 20.12 38.46
  L 42.84 38.46
  A 2.68 2.68 0.0 0 0 45.52 35.78
  L 45.52 35.09
  A 12.20 8.79 0.0 0 0 33.32 26.30
  L 29.64 26.30
  A 12.20 8.79 0.0 0 0 17.44 35.09
  L 17.44 35.78
  A 2.68 2.68 0.0 0 0 20.12 38.46
  Z
  M 16.05 38.05
  C 14.77 34.46 15.45 31.51 17.78 28.52
  Q 18.12 28.07 17.57 27.97
  C 12.14 26.93 0.56 28.65 2.68 36.66
  A 2.48 2.47 82.5 0 0 5.07 38.50
  L 15.73 38.50
  Q 16.21 38.50 16.05 38.05
  Z"
/>
<circle fill="#e9e1e3" cx="31.47" cy="17.22" r="7.61"/>
<circle fill="#e9e1e3" cx="14.45" cy="20.28" r="6.60"/>
<path fill="#e9e1e3" d="
  M 20.12 38.46
  A 2.68 2.68 0.0 0 1 17.44 35.78
  L 17.44 35.09
  A 12.20 8.79 0.0 0 1 29.64 26.30
  L 33.32 26.30
  A 12.20 8.79 -0.0 0 1 45.52 35.09
  L 45.52 35.78
  A 2.68 2.68 0.0 0 1 42.84 38.46
  L 20.12 38.46
  Z"
/>
<path fill="#e9e1e3" d="
  M 17.78 28.52
  C 15.45 31.51 14.77 34.46 16.05 38.05
  Q 16.21 38.50 15.73 38.50
  L 5.07 38.50
  A 2.48 2.47 82.5 0 1 2.68 36.66
  C 0.56 28.65 12.14 26.93 17.57 27.97
  Q 18.12 28.07 17.78 28.52
  Z"
/>
</svg>
