<?xml version="1.0" encoding="UTF-8" standalone="no"?>
<!DOCTYPE svg PUBLIC "-//W3C//DTD SVG 1.1//EN" "http://www.w3.org/Graphics/SVG/1.1/DTD/svg11.dtd">
<svg xmlns="http://www.w3.org/2000/svg" version="1.1" viewBox="0.00 0.00 64.00 64.00">
<g stroke-width="2.00" fill="none" stroke-linecap="butt">
<path stroke="#8791a2" vector-effect="non-scaling-stroke" d="
  M 43.91 17.49
  L 34.55 9.75
  A 3.99 3.98 44.9 0 0 29.48 9.75
  Q 19.47 18.03 10.41 25.65
  C 6.55 28.89 11.58 33.67 13.96 31.72
  Q 22.68 24.57 31.48 17.22
  A 0.86 0.84 44.9 0 1 32.57 17.23
  Q 40.58 23.94 48.80 30.72
  C 53.74 34.81 57.83 27.79 51.99 24.37
  Q 51.57 24.12 51.56 23.63
  C 51.44 19.38 53.71 9.88 45.35 12.91
  A 0.91 0.90 83.4 0 0 44.76 13.67
  L 44.38 17.30
  Q 44.33 17.84 43.91 17.49"
/>
<path stroke="#8791a2" vector-effect="non-scaling-stroke" d="
  M 51.13 36.40
  L 32.45 20.81
  Q 32.01 20.45 31.58 20.82
  L 12.89 36.38
  Q 12.52 36.68 12.51 37.17
  C 12.40 44.52 11.37 51.46 21.12 51.49
  Q 31.62 51.53 42.11 51.48
  C 52.67 51.43 51.50 45.21 51.52 37.25
  Q 51.52 36.73 51.13 36.40"
/>
<path stroke="#8791a2" vector-effect="non-scaling-stroke" d="
  M 26.98 44.50
  L 37.02 44.50
  A 0.24 0.24 0.0 0 0 37.26 44.26
  L 37.26 35.71
  A 2.31 1.97 0.0 0 0 34.95 33.74
  L 29.05 33.74
  A 2.31 1.97 0.0 0 0 26.74 35.71
  L 26.74 44.26
  A 0.24 0.24 0.0 0 0 26.98 44.50"
/>
</g>
<path fill="#244160" d="
  M 0.00 0.00
  L 64.00 0.00
  L 64.00 64.00
  L 0.00 64.00
  L 0.00 0.00
  Z
  M 43.91 17.49
  L 34.55 9.75
  A 3.99 3.98 44.9 0 0 29.48 9.75
  Q 19.47 18.03 10.41 25.65
  C 6.55 28.89 11.58 33.67 13.96 31.72
  Q 22.68 24.57 31.48 17.22
  A 0.86 0.84 44.9 0 1 32.57 17.23
  Q 40.58 23.94 48.80 30.72
  C 53.74 34.81 57.83 27.79 51.99 24.37
  Q 51.57 24.12 51.56 23.63
  C 51.44 19.38 53.71 9.88 45.35 12.91
  A 0.91 0.90 83.4 0 0 44.76 13.67
  L 44.38 17.30
  Q 44.33 17.84 43.91 17.49
  Z
  M 51.13 36.40
  L 32.45 20.81
  Q 32.01 20.45 31.58 20.82
  L 12.89 36.38
  Q 12.52 36.68 12.51 37.17
  C 12.40 44.52 11.37 51.46 21.12 51.49
  Q 31.62 51.53 42.11 51.48
  C 52.67 51.43 51.50 45.21 51.52 37.25
  Q 51.52 36.73 51.13 36.40
  Z"
/>
<path fill="#e9e1e3" d="
  M 44.38 17.30
  L 44.76 13.67
  A 0.91 0.90 83.4 0 1 45.35 12.91
  C 53.71 9.88 51.44 19.38 51.56 23.63
  Q 51.57 24.12 51.99 24.37
  C 57.83 27.79 53.74 34.81 48.80 30.72
  Q 40.58 23.94 32.57 17.23
  A 0.86 0.84 44.9 0 0 31.48 17.22
  Q 22.68 24.57 13.96 31.72
  C 11.58 33.67 6.55 28.89 10.41 25.65
  Q 19.47 18.03 29.48 9.75
  A 3.99 3.98 44.9 0 1 34.55 9.75
  L 43.91 17.49
  Q 44.33 17.84 44.38 17.30
  Z"
/>
<path fill="#e9e1e3" d="
  M 32.45 20.81
  L 51.13 36.40
  Q 51.52 36.73 51.52 37.25
  C 51.50 45.21 52.67 51.43 42.11 51.48
  Q 31.62 51.53 21.12 51.49
  C 11.37 51.46 12.40 44.52 12.51 37.17
  Q 12.52 36.68 12.89 36.38
  L 31.58 20.82
  Q 32.01 20.45 32.45 20.81
  Z
  M 26.98 44.50
  L 37.02 44.50
  A 0.24 0.24 0.0 0 0 37.26 44.26
  L 37.26 35.71
  A 2.31 1.97 0.0 0 0 34.95 33.74
  L 29.05 33.74
  A 2.31 1.97 0.0 0 0 26.74 35.71
  L 26.74 44.26
  A 0.24 0.24 0.0 0 0 26.98 44.50
  Z"
/>
<path fill="#244160" d="
  M 26.98 44.50
  A 0.24 0.24 0.0 0 1 26.74 44.26
  L 26.74 35.71
  A 2.31 1.97 0.0 0 1 29.05 33.74
  L 34.95 33.74
  A 2.31 1.97 0.0 0 1 37.26 35.71
  L 37.26 44.26
  A 0.24 0.24 0.0 0 1 37.02 44.50
  L 26.98 44.50
  Z"
/>
</svg>
