<?xml version="1.0" encoding="UTF-8" standalone="no"?>
<!DOCTYPE svg PUBLIC "-//W3C//DTD SVG 1.1//EN" "http://www.w3.org/Graphics/SVG/1.1/DTD/svg11.dtd">
<svg xmlns="http://www.w3.org/2000/svg" version="1.1" viewBox="0.00 0.00 24.00 24.00">
<g stroke-width="2.00" fill="none" stroke-linecap="butt">
<path stroke="#122130" vector-effect="non-scaling-stroke" d="
  M 9.64 5.36
  L 17.43 13.09
  Q 17.67 13.33 17.76 13.00
  Q 19.21 7.16 14.19 4.37
  Q 13.70 4.10 13.51 3.57
  L 13.22 2.79
  A 1.21 1.21 0.0 0 0 11.09 2.53
  L 9.61 4.67
  Q 9.34 5.07 9.64 5.36"
/>
<path stroke="#122130" vector-effect="non-scaling-stroke" d="
  M 6.14 8.04
  L 5.94 15.53
  A 1.12 1.10 -17.9 0 1 5.50 16.37
  L 4.19 17.38
  A 0.90 0.90 0.0 0 0 4.74 18.99
  C 8.60 19.00 17.11 17.82 19.44 20.93
  Q 19.93 21.58 20.41 20.93
  L 20.87 20.32
  Q 21.22 19.85 20.81 19.44
  Q 12.81 11.42 4.78 3.41
  Q 4.34 2.98 3.94 2.99
  Q 3.33 3.01 3.03 3.70
  A 0.80 0.79 -55.6 0 0 3.19 4.57
  L 5.79 7.17
  Q 6.16 7.53 6.14 8.04"
/>
<path stroke="#122130" vector-effect="non-scaling-stroke" d="
  M 13.75 20.07
  L 10.22 19.91
  A 0.13 0.13 0.0 0 0 10.08 20.03
  L 10.08 20.07
  A 1.82 1.81 2.6 0 0 11.82 21.97
  L 11.98 21.97
  A 1.82 1.81 2.6 0 0 13.88 20.25
  L 13.88 20.21
  A 0.13 0.13 0.0 0 0 13.75 20.07"
/>
</g>
<path fill="#244160" d="
  M 0.00 0.00
  L 24.00 0.00
  L 24.00 24.00
  L 0.00 24.00
  L 0.00 0.00
  Z
  M 9.64 5.36
  L 17.43 13.09
  Q 17.67 13.33 17.76 13.00
  Q 19.21 7.16 14.19 4.37
  Q 13.70 4.10 13.51 3.57
  L 13.22 2.79
  A 1.21 1.21 0.0 0 0 11.09 2.53
  L 9.61 4.67
  Q 9.34 5.07 9.64 5.36
  Z
  M 6.14 8.04
  L 5.94 15.53
  A 1.12 1.10 -17.9 0 1 5.50 16.37
  L 4.19 17.38
  A 0.90 0.90 0.0 0 0 4.74 18.99
  C 8.60 19.00 17.11 17.82 19.44 20.93
  Q 19.93 21.58 20.41 20.93
  L 20.87 20.32
  Q 21.22 19.85 20.81 19.44
  Q 12.81 11.42 4.78 3.41
  Q 4.34 2.98 3.94 2.99
  Q 3.33 3.01 3.03 3.70
  A 0.80 0.79 -55.6 0 0 3.19 4.57
  L 5.79 7.17
  Q 6.16 7.53 6.14 8.04
  Z
  M 13.75 20.07
  L 10.22 19.91
  A 0.13 0.13 0.0 0 0 10.08 20.03
  L 10.08 20.07
  A 1.82 1.81 2.6 0 0 11.82 21.97
  L 11.98 21.97
  A 1.82 1.81 2.6 0 0 13.88 20.25
  L 13.88 20.21
  A 0.13 0.13 0.0 0 0 13.75 20.07
  Z"
/>
<path fill="#000000" d="
  M 17.43 13.09
  L 9.64 5.36
  Q 9.34 5.07 9.61 4.67
  L 11.09 2.53
  A 1.21 1.21 0.0 0 1 13.22 2.79
  L 13.51 3.57
  Q 13.70 4.10 14.19 4.37
  Q 19.21 7.16 17.76 13.00
  Q 17.67 13.33 17.43 13.09
  Z"
/>
<path fill="#000000" d="
  M 6.14 8.04
  Q 6.16 7.53 5.79 7.17
  L 3.19 4.57
  A 0.80 0.79 -55.6 0 1 3.03 3.70
  Q 3.33 3.01 3.94 2.99
  Q 4.34 2.98 4.78 3.41
  Q 12.81 11.42 20.81 19.44
  Q 21.22 19.85 20.87 20.32
  L 20.41 20.93
  Q 19.93 21.58 19.44 20.93
  C 17.11 17.82 8.60 19.00 4.74 18.99
  A 0.90 0.90 0.0 0 1 4.19 17.38
  L 5.50 16.37
  A 1.12 1.10 -17.9 0 0 5.94 15.53
  L 6.14 8.04
  Z"
/>
<path fill="#000000" d="
  M 13.75 20.07
  A 0.13 0.13 0.0 0 1 13.88 20.21
  L 13.88 20.25
  A 1.82 1.81 2.6 0 1 11.98 21.97
  L 11.82 21.97
  A 1.82 1.81 2.6 0 1 10.08 20.07
  L 10.08 20.03
  A 0.13 0.13 0.0 0 1 10.22 19.91
  L 13.75 20.07
  Z"
/>
</svg>
