<?xml version="1.0" encoding="UTF-8" standalone="no"?>
<!DOCTYPE svg PUBLIC "-//W3C//DTD SVG 1.1//EN" "http://www.w3.org/Graphics/SVG/1.1/DTD/svg11.dtd">
<svg xmlns="http://www.w3.org/2000/svg" version="1.1" viewBox="0.00 0.00 30.00 30.00">
<g stroke-width="2.00" fill="none" stroke-linecap="butt">
<path stroke="#8c95a4" vector-effect="non-scaling-stroke" d="
  M 27.89 7.99
  A 0.96 0.96 0.0 0 0 26.93 7.03
  L 3.07 7.03
  A 0.96 0.96 0.0 0 0 2.11 7.99
  L 2.11 8.01
  A 0.96 0.96 0.0 0 0 3.07 8.97
  L 26.93 8.97
  A 0.96 0.96 0.0 0 0 27.89 8.01
  L 27.89 7.99"
/>
<path stroke="#8c95a4" vector-effect="non-scaling-stroke" d="
  M 27.9300 15.0025
  A 0.97 0.97 0.0 0 0 26.9617 14.0308
  L 3.1017 13.9892
  A 0.97 0.97 0.0 0 0 2.1301 14.9575
  L 2.1300 14.9975
  A 0.97 0.97 0.0 0 0 3.0983 15.9692
  L 26.9583 16.0108
  A 0.97 0.97 0.0 0 0 27.9299 15.0425
  L 27.9300 15.0025"
/>
<path stroke="#8c95a4" vector-effect="non-scaling-stroke" d="
  M 27.77 21.98
  A 0.97 0.97 0.0 0 0 26.80 21.01
  L 3.24 21.01
  A 0.97 0.97 0.0 0 0 2.27 21.98
  L 2.27 22.02
  A 0.97 0.97 0.0 0 0 3.24 22.99
  L 26.80 22.99
  A 0.97 0.97 0.0 0 0 27.77 22.02
  L 27.77 21.98"
/>
</g>
<path fill="#244160" d="
  M 0.00 0.00
  L 30.00 0.00
  L 30.00 30.00
  L 0.00 30.00
  L 0.00 0.00
  Z
  M 27.89 7.99
  A 0.96 0.96 0.0 0 0 26.93 7.03
  L 3.07 7.03
  A 0.96 0.96 0.0 0 0 2.11 7.99
  L 2.11 8.01
  A 0.96 0.96 0.0 0 0 3.07 8.97
  L 26.93 8.97
  A 0.96 0.96 0.0 0 0 27.89 8.01
  L 27.89 7.99
  Z
  M 27.9300 15.0025
  A 0.97 0.97 0.0 0 0 26.9617 14.0308
  L 3.1017 13.9892
  A 0.97 0.97 0.0 0 0 2.1301 14.9575
  L 2.1300 14.9975
  A 0.97 0.97 0.0 0 0 3.0983 15.9692
  L 26.9583 16.0108
  A 0.97 0.97 0.0 0 0 27.9299 15.0425
  L 27.9300 15.0025
  Z
  M 27.77 21.98
  A 0.97 0.97 0.0 0 0 26.80 21.01
  L 3.24 21.01
  A 0.97 0.97 0.0 0 0 2.27 21.98
  L 2.27 22.02
  A 0.97 0.97 0.0 0 0 3.24 22.99
  L 26.80 22.99
  A 0.97 0.97 0.0 0 0 27.77 22.02
  L 27.77 21.98
  Z"
/>
<rect fill="#f4e8e8" x="2.11" y="7.03" width="25.78" height="1.94" rx="0.96"/>
<rect fill="#f4e8e8" x="-12.90" y="-0.99" transform="translate(15.03,15.00) rotate(0.1)" width="25.80" height="1.98" rx="0.97"/>
<rect fill="#f4e8e8" x="2.27" y="21.01" width="25.50" height="1.98" rx="0.97"/>
</svg>
