<?xml version="1.0" encoding="UTF-8" standalone="no"?>
<!DOCTYPE svg PUBLIC "-//W3C//DTD SVG 1.1//EN" "http://www.w3.org/Graphics/SVG/1.1/DTD/svg11.dtd">
<svg xmlns="http://www.w3.org/2000/svg" version="1.1" viewBox="0.00 0.00 50.00 50.00">
<g stroke-width="2.00" fill="none" stroke-linecap="butt">
<path stroke="#8791a2" vector-effect="non-scaling-stroke" d="
  M 14.23 9.03
  C 9.52 8.88 1.00 7.38 1.00 14.75
  Q 1.00 25.88 0.97 36.99
  Q 0.95 42.99 6.51 42.99
  Q 24.11 43.02 41.70 42.98
  C 46.01 42.97 48.96 42.02 48.98 37.24
  Q 49.04 25.53 48.96 13.81
  C 48.92 7.45 39.23 9.02 35.27 8.99
  A 0.76 0.75 79.1 0 1 34.57 8.51
  C 33.57 6.09 32.33 4.95 29.49 4.98
  Q 23.99 5.04 18.39 4.98
  A 0.91 0.90 19.4 0 0 17.69 5.31
  L 14.95 8.70
  A 0.91 0.91 0.0 0 1 14.23 9.03"
/>
<path stroke="#8791a2" vector-effect="non-scaling-stroke" d="
  M 11.85 15.98
  A 1.87 1.87 0.0 0 0 9.98 14.11
  A 1.87 1.87 0.0 0 0 8.11 15.98
  A 1.87 1.87 0.0 0 0 9.98 17.85
  A 1.87 1.87 0.0 0 0 11.85 15.98"
/>
<path stroke="#8791a2" vector-effect="non-scaling-stroke" d="
  M 35.91 25.99
  A 10.92 10.92 0.0 0 0 24.99 15.07
  A 10.92 10.92 0.0 0 0 14.07 25.99
  A 10.92 10.92 0.0 0 0 24.99 36.91
  A 10.92 10.92 0.0 0 0 35.91 25.99"
/>
<path stroke="#8791a2" vector-effect="non-scaling-stroke" d="
  M 33.89 25.99
  A 8.89 8.89 0.0 0 0 25.00 17.10
  A 8.89 8.89 0.0 0 0 16.11 25.99
  A 8.89 8.89 0.0 0 0 25.00 34.88
  A 8.89 8.89 0.0 0 0 33.89 25.99"
/>
</g>
<path fill="#244160" d="
  M 0.00 0.00
  L 50.00 0.00
  L 50.00 50.00
  L 0.00 50.00
  L 0.00 0.00
  Z
  M 14.23 9.03
  C 9.52 8.88 1.00 7.38 1.00 14.75
  Q 1.00 25.88 0.97 36.99
  Q 0.95 42.99 6.51 42.99
  Q 24.11 43.02 41.70 42.98
  C 46.01 42.97 48.96 42.02 48.98 37.24
  Q 49.04 25.53 48.96 13.81
  C 48.92 7.45 39.23 9.02 35.27 8.99
  A 0.76 0.75 79.1 0 1 34.57 8.51
  C 33.57 6.09 32.33 4.95 29.49 4.98
  Q 23.99 5.04 18.39 4.98
  A 0.91 0.90 19.4 0 0 17.69 5.31
  L 14.95 8.70
  A 0.91 0.91 0.0 0 1 14.23 9.03
  Z"
/>
<path fill="#e9e1e3" d="
  M 1.00 14.75
  C 1.00 7.38 9.52 8.88 14.23 9.03
  A 0.91 0.91 0.0 0 0 14.95 8.70
  L 17.69 5.31
  A 0.91 0.90 19.4 0 1 18.39 4.98
  Q 23.99 5.04 29.49 4.98
  C 32.33 4.95 33.57 6.09 34.57 8.51
  A 0.76 0.75 79.1 0 0 35.27 8.99
  C 39.23 9.02 48.92 7.45 48.96 13.81
  Q 49.04 25.53 48.98 37.24
  C 48.96 42.02 46.01 42.97 41.70 42.98
  Q 24.11 43.02 6.51 42.99
  Q 0.95 42.99 0.97 36.99
  Q 1.00 25.88 1.00 14.75
  Z
  M 11.85 15.98
  A 1.87 1.87 0.0 0 0 9.98 14.11
  A 1.87 1.87 0.0 0 0 8.11 15.98
  A 1.87 1.87 0.0 0 0 9.98 17.85
  A 1.87 1.87 0.0 0 0 11.85 15.98
  Z
  M 35.91 25.99
  A 10.92 10.92 0.0 0 0 24.99 15.07
  A 10.92 10.92 0.0 0 0 14.07 25.99
  A 10.92 10.92 0.0 0 0 24.99 36.91
  A 10.92 10.92 0.0 0 0 35.91 25.99
  Z"
/>
<circle fill="#244160" cx="9.98" cy="15.98" r="1.87"/>
<path fill="#244160" d="
  M 35.91 25.99
  A 10.92 10.92 0.0 0 1 24.99 36.91
  A 10.92 10.92 0.0 0 1 14.07 25.99
  A 10.92 10.92 0.0 0 1 24.99 15.07
  A 10.92 10.92 0.0 0 1 35.91 25.99
  Z
  M 33.89 25.99
  A 8.89 8.89 0.0 0 0 25.00 17.10
  A 8.89 8.89 0.0 0 0 16.11 25.99
  A 8.89 8.89 0.0 0 0 25.00 34.88
  A 8.89 8.89 0.0 0 0 33.89 25.99
  Z"
/>
<circle fill="#e9e1e3" cx="25.00" cy="25.99" r="8.89"/>
</svg>
